<svg width="4013" height="1400" xmlns="http://www.w3.org/2000/svg">
  <defs>
    <linearGradient x1="-8.32%" y1="96.94%" x2="90.8%" y2="16.3%" id="a">
      <stop stop-color="#F030C1" offset="0%"/>
      <stop stop-color="#2194D3" offset="100%"/>
    </linearGradient>
    <linearGradient x1="19.35%" y1="52.82%" x2="22.21%" y2="-114.28%" id="b">
      <stop stop-color="#FFF" stop-opacity="0" offset="0%"/>
      <stop stop-color="#FFF" offset="100%"/>
    </linearGradient>
    <linearGradient x1="177.52%" y1="-20.4%" x2="41.37%" y2="73.11%" id="c">
      <stop stop-color="#F2F5FA" offset="0%"/>
      <stop stop-color="#FFF" offset="100%"/>
    </linearGradient>
  </defs>
  <g fill="none" fill-rule="evenodd">
    <path stroke-opacity=".01" stroke="#FFF" d="M.5.5h4012v1399H.5z"/>
    <path d="M2146.13 1085.82c377.53 94.08-421.48 518.77-94.8 746.91 535.47 373.94 1135.05-302.93 1135.05-813.97 0-511.05-534.82-675.57-690.58-691.5-87.04-8.9-413.9-23.23-669.31 175.9-143.17 111.62-252.9 439.97 319.64 582.66z" fill="url(#a)" transform="translate(0 -880)"/>
    <path d="M2730.28 762.9c377.52 94.08-421.49 518.77-94.8 746.9 535.46 373.94 1135.05-302.92 1135.05-813.97 0-511.04-534.83-675.57-690.59-691.49-87.04-8.9-413.9-23.23-669.3 175.9-143.18 111.62-252.91 439.97 319.64 582.66z" fill-opacity=".2" fill="url(#b)" style="mix-blend-mode:overlay" transform="rotate(180 3033.26 368.9)"/>
    <path d="M2230.28 2163.09c377.52 94.08-421.49 518.77-94.8 746.9 535.46 373.94 1135.05-302.92 1135.05-813.97 0-511.04-534.83-675.57-690.59-691.49-87.04-8.9-413.9-23.23-669.3 175.9-143.18 111.62-252.91 439.97 319.64 582.66z" fill-opacity=".2" fill="url(#b)" style="mix-blend-mode:overlay" transform="matrix(-1 0 0 1 5066.53 -880)"/>
    <path d="M1188.71 1271.66c228.38 56.93-254.97 313.93-57.35 451.98C1455.3 1949.93 1818 1540.33 1818 1231.08c0-309.26-323.54-408.82-417.76-418.45-52.66-5.39-250.39-14.06-404.9 106.44-86.6 67.55-152.99 266.24 193.37 352.59z" fill="url(#c)" transform="matrix(1 0 0 -1 0 1719)"/>
  </g>
</svg>