<?xml version="1.0" encoding="UTF-8"?>
<svg width="60px" height="60px" viewBox="0 0 60 60" version="1.1" xmlns="http://www.w3.org/2000/svg" xmlns:xlink="http://www.w3.org/1999/xlink">
    <!-- Generator: Sketch 50.2 (55047) - http://www.bohemiancoding.com/sketch -->
    <title>itunes-logo-3d282a5400bb02a3</title>
    <desc>Created with Sketch.</desc>
    <defs></defs>
    <g id="Ver-1.0" stroke="none" stroke-width="1" fill="none" fill-rule="evenodd">
        <g id="Final-Ver-1.0" transform="translate(-1177.000000, -1966.000000)" fill-rule="nonzero">
            <g id="Group-19" transform="translate(1177.000000, 1966.000000)">
                <g id="itunes-logo-3d282a5400bb02a3">
                    <path d="M53.7705,48.2505 C53.7855,48.2295 53.8065,48.21 53.8215,48.189 L53.772,48.201 L53.7225,48.2625 L53.7705,48.2505 Z" id="Shape" fill="#80D8FF"></path>
                    <path d="M15.9405,56.4675 C22.2052014,59.8256747 29.4646235,60.8317995 36.4065,59.304 C43.3521562,57.7947065 49.5290792,53.8512653 53.8215,48.186 L15.9405,56.4675 Z" id="Shape" fill="#00E5FF"></path>
                    <path d="M15.9555,56.466 L53.772,48.1995 C55.7031836,45.6880967 57.2259155,42.887647 58.284,39.9015 L8.427,50.8005 C10.6207939,53.0700051 13.1559012,54.9825966 15.9405,56.469 L15.9555,56.466 Z" id="Shape" fill="#80D8FF"></path>
                    <path d="M59.9055,32.235 L3.756,44.5095 C5.0321119,46.8062032 6.60569259,48.9244849 8.436,50.8095 L58.275,39.9285 C59.1549177,37.4469894 59.7031604,34.8601112 59.9055,32.235 Z" id="Shape" fill="#82B1FF"></path>
                    <path d="M59.9055,32.235 C60.1155,29.4075 59.9415,26.505 59.3055,23.592 L0.696,36.405 C1.3184599,39.2398614 2.34921111,41.969331 3.756,44.508 L59.9055,32.235 Z" id="Shape" fill="#8C9EFF"></path>
                    <path d="M59.3055,23.595 C58.7515068,21.1034968 57.881463,18.6929817 56.7165,16.422 L0.066,28.6185 C-0.0647233433,31.2309418 0.147585434,33.8492486 0.6975,36.4065 L59.3055,23.595 Z" id="Shape" fill="#B388FF"></path>
                    <path d="M56.7135,16.422 C56.733,16.461 56.7645,16.4955 56.787,16.5315 C55.1629183,13.3035297 52.9686302,10.3957676 50.31,7.9485 L2.343,18.435 C0.999726256,21.6689398 0.235590596,25.1138969 0.0855,28.6125 L56.7135,16.422 Z" id="Shape" fill="#EA80FC"></path>
                    <path d="M50.31,7.95 C50.328,7.9665 50.3535,7.977 50.373,7.995 C47.7571747,5.58233352 44.7357624,3.65066085 41.448,2.289 L8.0355,9.5925 C5.64233751,12.183881 3.72270012,15.1752863 2.364,18.4305 L50.31,7.95 Z" id="Shape" fill="#FF80AB"></path>
                    <path d="M8.0355,9.5925 L41.4495,2.289 C35.8019564,-0.0593412348 29.5692928,-0.615950604 23.595,0.6945 C17.6187708,1.99478788 12.1868508,5.10113604 8.0355,9.5925 Z" id="Shape" fill="#FF8A80"></path>
                    <path d="M30,2.9985 C15.09,2.9985 3,15.0885 3,30 C3,44.9115 15.0885,57.0015 30,57.0015 C44.9115,57.0015 57,44.9115 57,30 C57,15.0885 44.9115,2.9985 30,2.9985 Z M43.5,36.468 C43.4991723,40.3341692 40.365669,43.468344 36.4995,43.47 L36.3615,43.47 C33.927,43.47 31.896,42.0555 31.524,39.651 C31.1736603,37.2933668 32.6091574,35.0365814 34.893,34.3545 L35.289,34.2585 L39.4725,33 C40.0766053,32.8458472 40.4994892,32.3019629 40.5,31.6785 L40.5,21.468 C40.5072644,21.0683718 40.3356883,20.6863778 40.0321359,20.4263559 C39.7285835,20.1663339 39.3247725,20.0554533 38.931,20.124 L27.0375,22.716 C26.1364824,22.8795223 25.4860155,23.6708709 25.5,24.5865 L25.5,40.998 C25.5,44.865 22.638,48 18.7725,48 L18.6345,48 C16.2,48 13.9275,46.344 13.5555,43.9395 C13.2051603,41.5818668 14.6406574,39.3250814 16.9245,38.643 L17.3205,38.547 L21.4755,37.3185 C22.0785661,37.1653519 22.5005995,36.6222079 22.5,36 L22.5,16.0005 C22.5,15.0945 23.1495,14.3205 24.0405,14.163 L41.898,10.521 C42.2953047,10.4509535 42.7032445,10.5602465 43.0123141,10.8195408 C43.3213836,11.0788351 43.4999208,11.4615678 43.5,11.865 L43.5,36.468 Z" id="Shape" fill="#FFFFFF"></path>
                </g>
            </g>
        </g>
    </g>
</svg>