<?xml version="1.0" encoding="UTF-8"?>
<svg width="136px" height="17px" viewBox="0 0 136 17" version="1.1" xmlns="http://www.w3.org/2000/svg" xmlns:xlink="http://www.w3.org/1999/xlink">
    <!-- Generator: Sketch 50.2 (55047) - http://www.bohemiancoding.com/sketch -->
    <title>Distro100</title>
    <desc>Created with Sketch.</desc>
    <defs>
        <polygon id="path-1" points="0 0.110075 19.042975 0.110075 19.042975 16.9745 0 16.9745"></polygon>
        <polygon id="path-3" points="0 0.110075 32.20565 0.110075 32.20565 16.9745 0 16.9745"></polygon>
    </defs>
    <g id="Ver-1.0" stroke="none" stroke-width="1" fill="none" fill-rule="evenodd">
        <g id="Final-Ver-1.0" transform="translate(-134.000000, -67.000000)">
            <g id="Distro100" transform="translate(134.000000, 67.000000)">
                <path d="M11.51325,10.98115 C11.16645,11.7402 10.7576,12.319475 10.2289,12.81035 C9.6781,13.319075 9.031675,13.738125 8.297275,13.988875 C7.545025,14.260875 6.70735,14.43385 5.8072,14.43385 L2.55,14.43385 L2.55,2.95885 L5.784675,2.95885 C6.764725,2.95885 7.634275,2.984775 8.3844,3.24785 C9.12305,3.487975 9.769475,3.798225 10.295625,4.2653 C10.825175,4.756175 11.21915,5.31845 11.50475,6.052425 C11.8031,6.76855 11.948025,7.582425 11.948025,8.568425 C11.948025,9.451575 11.797575,10.26885 11.51325,10.98115 Z M12.067025,2.70555 C11.32965,1.991975 10.423975,1.419925 9.37465,1.0047 L9.362325,0.992375 C8.33255,0.609875 7.159125,0.40885 5.87435,0.40885 L0,0.40885 L0,16.55885 L5.8072,16.55885 C7.097075,16.55885 8.233525,16.4254 9.284975,16.018675 C10.343225,15.600475 11.254,15.070075 11.99945,14.372225 C12.7653,13.63145 13.36285,12.77975 13.780625,11.798425 C14.203075,10.7542 14.40835,9.69595 14.40835,8.547175 C14.40835,7.3304 14.203075,6.234325 13.8006,5.287 C13.367525,4.242775 12.781875,3.374075 12.067025,2.70555 Z" id="Fill-16" fill="#252D47"></path>
                <g id="Group-20" transform="translate(17.425000, 0.000000)">
                    <mask id="mask-2" fill="white">
                        <use xlink:href="#path-1"></use>
                    </mask>
                    <g id="Clip-18"></g>
                    <polygon id="Fill-17" fill="#252D47" mask="url(#mask-2)" points="0 16.55885 2.55 16.55885 2.55 0.40885 0 0.40885"></polygon>
                    <path d="M13.999075,7.319775 L11.4954,6.96235 C10.56805,6.826775 9.846825,6.567525 9.363175,6.20075 C8.96155,5.87945 8.774975,5.419175 8.774975,4.75235 C8.774975,4.39705 8.8315,4.1174 8.953475,3.8743 L8.98025,3.81225 C9.064825,3.587 9.248425,3.3677 9.5421,3.1467 C9.7835,2.954175 10.133275,2.784175 10.642,2.6129 C11.812025,2.326025 13.263825,2.338775 14.734325,2.74635 C15.519725,2.994975 16.179325,3.30395 16.7501,3.691125 L17.2635,4.04005 L18.623925,2.145825 L18.1067,1.77395 C17.305575,1.19765 16.3914,0.773075 15.3833,0.509575 C14.30805,0.24055 13.328,0.110075 12.3879,0.110075 C11.5311,0.110075 10.730825,0.2074 10.003225,0.4012 C9.2548,0.6086 8.60965,0.91545 8.102625,1.302625 C7.55055,1.6966 7.11025,2.190025 6.779175,2.79905 C6.4855,3.4136 6.336325,4.0783 6.336325,4.774025 C6.336325,6.523325 7.14595,8.720575 11.004525,9.253525 L13.651,9.61265 C14.74155,9.74865 15.529925,10.044875 15.98595,10.482625 C16.40245,10.8987 16.60475,11.387875 16.60475,11.97735 C16.60475,12.7415 16.266875,13.3552 15.57285,13.853725 C14.80445,14.405375 13.7037,14.67355 12.20855,14.67355 C11.26505,14.67355 10.42695,14.571125 9.6611,14.364575 C8.917775,14.14315 8.150225,13.7547 7.31425,13.176275 L6.7779,12.804825 L5.47995,14.775975 L5.973375,15.133825 C6.928775,15.82615 7.925825,16.3115 8.9199,16.571175 C9.89145,16.8555 10.98285,17 12.163925,17 C13.2107,17 14.131675,16.882275 14.979125,16.640025 C15.8151,16.40075 16.538875,16.0582 17.118575,15.6298 C17.71485,15.20735 18.1934,14.66845 18.5351,14.036475 C18.872125,13.44105 19.042975,12.763175 19.042975,12.0224 C19.042975,10.7134 18.581425,9.629225 17.6579,8.787725 C16.7671,8.0206 15.569875,7.540775 13.999075,7.319775" id="Fill-19" fill="#252D47" mask="url(#mask-2)"></path>
                </g>
                <polyline id="Fill-21" fill="#252D47" points="38.25 2.53385 44.2 2.53385 44.2 16.55885 46.75 16.55885 46.75 2.53385 52.7 2.53385 52.7 0.40885 38.25 0.40885 38.25 2.53385"></polyline>
                <g id="Group-25" transform="translate(55.675000, 0.000000)">
                    <mask id="mask-4" fill="white">
                        <use xlink:href="#path-3"></use>
                    </mask>
                    <g id="Clip-23"></g>
                    <path d="M6.689925,8.90885 L2.55,8.90885 L2.55,2.53385 L6.7796,2.53385 C7.962375,2.53385 8.871025,2.89935 9.542525,3.43995 C10.1745,3.979275 10.4822,4.768925 10.4822,5.754925 C10.4822,6.258975 10.4006,6.696725 10.21445,7.108125 C10.07845,7.4477 9.83195,7.8081 9.54805,8.07585 C9.1783,8.383975 8.791125,8.547175 8.331275,8.71335 C7.851025,8.8859 7.32955,8.90885 6.689925,8.90885 Z M10.314325,10.372125 C10.8919,10.014275 11.34495,9.6339 11.709175,9.19615 C12.09975,8.70145 12.39385,8.19485 12.60805,7.6466 C12.8299,7.078375 12.94295,6.4583 12.94295,5.803375 C12.94295,4.998425 12.7874,4.253825 12.4814,3.5904 C12.189425,2.957575 11.7623,2.383825 11.19875,1.87425 C10.68195,1.430975 10.043175,1.068875 9.3007,0.812175 C8.604975,0.5491 7.817025,0.40885 6.958525,0.40885 L0,0.40885 L0,16.55885 L2.55,16.55885 L2.55,11.45885 L6.90115,11.45885 L10.771625,16.55885 L13.816325,16.55885 L9.457525,10.733375 C9.76735,10.611825 10.0538,10.533625 10.314325,10.372125 Z" id="Fill-22" fill="#252D47" mask="url(#mask-4)"></path>
                    <path d="M29.323725,11.061475 C29.00965,11.81585 28.594,12.4644 28.0891,12.989275 C27.587175,13.510325 26.976875,13.9162 26.2276,14.22815 C25.4881,14.527775 24.6738,14.67355 23.73795,14.67355 C22.83865,14.67355 22.02435,14.52055 21.25425,14.208175 C20.516025,13.900475 19.908275,13.482275 19.37915,12.91405 C18.8785,12.4134 18.466675,11.7691 18.159825,11.013875 C17.875925,10.2629 17.73185,9.43585 17.73185,8.55525 C17.73185,7.66955 17.8755,6.851425 18.16705,6.09875 C18.4178,5.36605 18.805825,4.7226 19.328575,4.179025 C19.8441,3.62355 20.4578,3.20705 21.2041,2.904875 L21.204525,2.90445 C21.979725,2.58995 22.808475,2.436525 23.73795,2.436525 C24.67465,2.436525 25.48895,2.5823 26.222075,2.8798 C26.976875,3.193875 27.587175,3.59975 28.0891,4.120375 C28.594,4.64525 29.00965,5.2938 29.314375,6.02395 C29.6038,6.80935 29.744475,7.637675 29.744475,8.55525 C29.744475,9.472825 29.6038,10.300725 29.323725,11.061475 Z M29.833725,2.5415 C29.12525,1.80965 28.202575,1.18745 27.166,0.743325 L27.14475,0.7344 C26.072475,0.320025 24.92625,0.110075 23.73795,0.110075 C22.508,0.110075 21.36985,0.33065 20.36515,0.7616 C19.3613,1.17215 18.4756,1.75695 17.6426,2.5636 C16.87845,3.35325 16.2911,4.258925 15.8967,5.255975 C15.475525,6.321875 15.2711,7.40095 15.2711,8.55525 C15.2711,9.76735 15.477225,10.85025 15.89415,11.846875 C16.283025,12.866875 16.86655,13.77 17.6205,14.524375 C18.397825,15.32635 19.280975,15.923475 20.310325,16.34465 C21.32565,16.779425 22.478675,17 23.73795,17 C24.9883,17 26.1103,16.777725 27.166,16.322125 C28.203425,15.87715 29.125675,15.255375 29.819275,14.5384 C30.6,13.7819 31.193725,12.8673 31.574525,11.843475 C31.9991,10.828575 32.20565,9.7529 32.20565,8.55525 C32.20565,7.312125 31.9991,6.21435 31.582175,5.218575 C31.187775,4.184125 30.594475,3.27845 29.833725,2.5415 Z" id="Fill-24" fill="#252D47" mask="url(#mask-4)"></path>
                </g>
                <polyline id="Fill-26" fill="#252D47" points="90.4434 4.64015 92.072425 6.8102 93.925 5.7137 93.925 16.13385 96.9 16.13385 96.9 1.105425 94.789875 0.9265 90.4434 4.64015"></polyline>
                <path d="M112.77035,10.434175 C112.591425,11.015575 112.32325,11.53025 111.964975,11.95525 C111.607125,12.380675 111.1596,12.738525 110.622825,12.984175 C110.08605,13.230675 109.4596,13.36455 108.766,13.36455 C108.072825,13.36455 107.446375,13.230675 106.9096,13.007125 C106.394925,12.738525 105.946975,12.402775 105.58955,11.977775 C105.231275,11.552775 104.9631,11.038525 104.76165,10.4567 C104.582725,9.874875 104.49305,9.248425 104.49305,8.55525 C104.49305,7.88375 104.582725,7.2573 104.76165,6.6759 C104.9631,6.094075 105.231275,5.579825 105.58955,5.1323 C105.946975,4.7073 106.394925,4.37155 106.9096,4.103375 C107.446375,3.8794 108.072825,3.7451 108.766,3.7451 C109.4596,3.7451 110.063525,3.8573 110.6003,4.103375 C111.137075,4.349025 111.5846,4.6852 111.942875,5.08725 C112.3003,5.5352 112.5689,6.026925 112.77035,6.60875 C112.9497,7.212675 113.03895,7.86165 113.03895,8.55525 C113.03895,9.2259 112.9497,9.85235 112.77035,10.434175 Z M114.31395,3.006875 C113.6654,2.3137 112.860025,1.753975 111.92035,1.3515 C110.980675,0.949025 109.92965,0.747575 108.766,0.747575 C107.624875,0.747575 106.573425,0.949025 105.656275,1.374025 C104.7166,1.776925 103.91165,2.3358 103.262675,3.0294 C102.614125,3.7451 102.09945,4.573 101.7195,5.5352 C101.361225,6.47445 101.1823,7.481275 101.1823,8.55525 C101.1823,9.6509 101.361225,10.68025 101.7195,11.6195 C102.09945,12.5817 102.614125,13.409175 103.262675,14.102775 C103.91165,14.796375 104.7166,15.355675 105.656275,15.758575 C106.573425,16.16105 107.624875,16.3625 108.766,16.3625 C109.9067,16.3625 110.95815,16.16105 111.897825,15.73605 C112.8375,15.31105 113.642875,14.75175 114.29185,14.03605 C114.9625,13.34245 115.477175,12.51455 115.835025,11.5753 C116.1933,10.6131 116.372225,9.606275 116.372225,8.55525 C116.372225,7.45875 116.1933,6.429825 115.835025,5.49015 C115.477175,4.528375 114.9625,3.700475 114.31395,3.006875 Z" id="Fill-27" fill="#252D47"></path>
                <path d="M131.8095,10.434175 C131.630575,11.015575 131.361975,11.53025 131.004125,11.95525 C130.646275,12.380675 130.19875,12.738525 129.661975,12.984175 C129.1252,13.230675 128.49875,13.36455 127.80515,13.36455 C127.11155,13.36455 126.4851,13.230675 125.948325,13.007125 C125.43365,12.738525 124.986125,12.402775 124.6287,11.977775 C124.270425,11.552775 124.00225,11.038525 123.8008,10.4567 C123.621875,9.874875 123.5322,9.248425 123.5322,8.55525 C123.5322,7.88375 123.621875,7.2573 123.8008,6.6759 C124.00225,6.094075 124.270425,5.579825 124.6287,5.1323 C124.986125,4.7073 125.43365,4.37155 125.948325,4.103375 C126.4851,3.8794 127.11155,3.7451 127.80515,3.7451 C128.49875,3.7451 129.102675,3.8573 129.63945,4.103375 C130.176225,4.349025 130.62375,4.6852 130.982025,5.08725 C131.33945,5.5352 131.60805,6.026925 131.8095,6.60875 C131.988425,7.212675 132.077675,7.86165 132.077675,8.55525 C132.077675,9.2259 131.988425,9.85235 131.8095,10.434175 Z M134.874175,5.49015 C134.516325,4.528375 134.002075,3.700475 133.3531,3.006875 C132.704125,2.3137 131.899175,1.753975 130.9595,1.3515 C130.019825,0.949025 128.968375,0.747575 127.80515,0.747575 C126.664025,0.747575 125.612575,0.949025 124.695425,1.374025 C123.75575,1.776925 122.950375,2.3358 122.301825,3.0294 C121.653275,3.7451 121.1386,4.573 120.758225,5.5352 C120.400375,6.47445 120.22145,7.481275 120.22145,8.55525 C120.22145,9.6509 120.400375,10.68025 120.758225,11.6195 C121.1386,12.5817 121.653275,13.409175 122.301825,14.102775 C122.950375,14.796375 123.75575,15.355675 124.695425,15.758575 C125.612575,16.16105 126.664025,16.3625 127.80515,16.3625 C128.94585,16.3625 129.9973,16.16105 130.936975,15.73605 C131.876225,15.31105 132.682025,14.75175 133.330575,14.03605 C134.002075,13.34245 134.516325,12.51455 134.874175,11.5753 C135.23245,10.6131 135.41095,9.606275 135.41095,8.55525 C135.41095,7.45875 135.23245,6.429825 134.874175,5.49015 Z" id="Fill-28" fill="#252D47"></path>
            </g>
        </g>
    </g>
</svg>