<?xml version="1.0" encoding="UTF-8"?>
<svg width="75px" height="51px" viewBox="0 0 75 51" version="1.1" xmlns="http://www.w3.org/2000/svg" xmlns:xlink="http://www.w3.org/1999/xlink">
    <!-- Generator: Sketch 50.2 (55047) - http://www.bohemiancoding.com/sketch -->
    <title>Shape</title>
    <desc>Created with Sketch.</desc>
    <defs></defs>
    <g id="Ver-1.0" stroke="none" stroke-width="1" fill="none" fill-rule="evenodd">
        <g id="Final-Ver-1.0" transform="translate(-1169.000000, -2683.000000)" fill="#000000" fill-rule="nonzero" stroke="#000000" stroke-width="0.094">
            <g id="tidal-logo-brand-30558ab08efa0eae" style="mix-blend-mode: darken;" transform="translate(1169.000000, 2684.000000)">
                <path d="M12.6793421,0 L12.8335188,0 C14.0095013,1.35615674 15.3388896,2.55732414 16.591575,3.85535988 L25.1098356,12.418521 L25.1098356,12.5735104 C20.9859953,16.7001016 16.8806562,20.8654402 12.7564305,24.9920314 C8.61293264,20.8460665 4.4887069,16.6807279 0.345209074,12.534763 C0.557587428,12.127916 0.961915727,11.8566847 1.27026905,11.5273323 C5.06686938,7.67197243 8.92128596,3.87473355 12.6793421,0 Z M37.5403291,0 L37.6945057,0 C37.8105237,0.17436301 37.9257707,0.329352352 38.0799474,0.484341694 C42.0692685,4.45594358 46.0011589,8.48566647 50.0286388,12.4378947 C49.9322784,12.6703787 49.7202855,12.825368 49.5468367,12.9997311 C45.557901,16.9907066 41.5874665,21.0010558 37.5981453,24.9920314 C33.4353754,20.8654402 29.3496938,16.6613543 25.1676518,12.5541367 C29.2147893,8.31130346 33.4739196,4.22345957 37.5403291,0 Z M62.401316,0 L62.5554927,0 C63.326376,0.929936052 64.2321639,1.72425643 65.0608634,2.59607148 C68.1829409,5.73460565 71.2861317,8.85376616 74.4078236,11.9923003 C74.5623858,12.1666633 74.8129228,12.3216527 74.8703536,12.5735104 C70.6883116,16.6613543 66.6411742,20.9041875 62.4398602,24.9920314 L50.5875292,13.0772257 C50.3948084,12.8641154 50.1442713,12.709126 50.0479109,12.4378947 C52.1485679,10.3842859 54.1914087,8.27255613 56.2727936,6.19957368 C58.3156344,4.12659123 60.3970194,2.11172978 62.401316,0 Z M25.3411006,37.2943104 C29.4075101,33.2064665 33.4931917,29.1186226 37.5596011,25.0114051 L37.7326645,25.0888997 C41.818346,29.215491 45.9040276,33.3420822 50.0282533,37.4299261 C49.8937342,37.7399048 49.604653,37.9142678 49.3922746,38.1661255 C46.4247593,41.1302966 43.4564731,44.1332151 40.4885723,47.0973863 C39.5249682,48.0273223 38.5999082,49.0735004 37.6174174,49.9453155 C36.2105553,48.6666534 34.9193258,47.233002 33.5506225,45.9155926 C30.775828,43.1257844 28.0199201,40.3359763 25.2254681,37.5655418 C25.2640123,37.4880471 25.3025564,37.3718051 25.3411006,37.2943104 Z" id="Shape"></path>
            </g>
        </g>
    </g>
</svg>