<?xml version="1.0" encoding="UTF-8"?>
<svg width="64px" height="65px" viewBox="0 0 64 65" version="1.1" xmlns="http://www.w3.org/2000/svg" xmlns:xlink="http://www.w3.org/1999/xlink">
    <!-- Generator: Sketch 51.1 (57501) - http://www.bohemiancoding.com/sketch -->
    <title>Royalty-Payments</title>
    <desc>Created with Sketch.</desc>
    <defs>
        <linearGradient x1="50%" y1="157.892863%" x2="50%" y2="0%" id="linearGradient-1">
            <stop stop-color="#3023AE" offset="0%"></stop>
            <stop stop-color="#C86DD7" offset="100%"></stop>
        </linearGradient>
    </defs>
    <g id="Ver-1.0" stroke="none" stroke-width="1" fill="none" fill-rule="evenodd">
        <g id="Final-Ver-1.0" transform="translate(-310.000000, -868.000000)">
            <g id="Royalty-Payments" transform="translate(310.000000, 868.000000)">
                <g transform="translate(0.240000, 0.000000)">
                    <path d="M28.9061432,3.01320746 C30.7346496,3.65534964 32.690149,3.65534964 34.7726413,3.01320746 C36.8551335,2.37106528 38.6220124,1.65550478 40.073278,0.866525954 C42.1812647,-0.369397865 43.235258,0.796617673 43.235258,4.36457257 C43.235258,7.93252746 40.4143858,10.7947695 34.7726413,12.9512986 C47.024478,18.1406516 54.5453345,26.3279156 57.3352106,37.5130907 C61.0926676,52.2189852 57.4303834,58.2793604 54.7977482,60.1148185 C51.5425185,62.3843457 47.3474391,63.6423048 42.2125098,63.8886957 L20.5221008,63.7529741 C16.0745167,63.8643204 12.7250402,63.1813252 10.4736713,61.7039887 C6.88104393,59.6462446 5.06434783,54.7318808 5.06434783,50.8272546 C5.06434783,38.2289733 10.0978804,20.1820652 28.9061432,12.9512986 C23.9688956,9.95539663 21.1742148,7.09315462 20.5221008,4.36457257 C20.1800782,0.909718937 21.1774976,-0.256296601 23.5143591,0.866525954 C27.1088818,2.29764696 28.9061432,3.01320746 28.9061432,3.01320746 Z" id="Path" stroke="#49557D" stroke-width="0.56" stroke-linecap="round" stroke-linejoin="round"></path>
                    <path d="M39.8467391,19.7624457 C47.4196739,24.5569384 52.1147464,30.9833696 53.9319565,39.0417391" id="Path-10" stroke="#49557D" stroke-width="0.56" stroke-linecap="round" stroke-linejoin="round"></path>
                    <circle id="Oval-3" stroke="url(#linearGradient-1)" stroke-width="0.56" cx="32.333913" cy="40.5147826" r="15.5826087"></circle>
                    <g id="Group" stroke-width="1" fill-rule="evenodd" transform="translate(26.490435, 29.217391)" stroke="url(#linearGradient-1)" stroke-linecap="round" stroke-linejoin="round">
                        <path d="M5.71633295,21.9987895 L5.71633295,18.8917947" id="Path-12" stroke-width="0.56"></path>
                        <path d="M5.71633295,3.27739817 C5.71633295,1.2060683 5.71633295,0.170403373 5.71633295,0.170403373" id="Path-12" stroke-width="0.56"></path>
                        <path d="M10.576721,6.38809611 C9.00440925,3.55343881 6.49829512,2.67485605 3.05837862,3.75234783 C0.13566084,4.69707361 -0.278852021,10.3276499 6.47920481,11.0836516 C9.6368135,11.6943661 11.5987223,12.1841144 11.1138349,15.5499725 C10.4103642,18.2512197 6.75993424,18.9184022 5.77524221,18.9184022 C4.79055018,18.9184022 0.677574371,18.3630389 0.363315217,14.9006413" id="Path-11" stroke-width="0.56"></path>
                    </g>
                </g>
                <rect id="Rectangle-2" stroke-opacity="0.01" stroke="#979797" stroke-width="0.1" fill-rule="nonzero" x="0.05" y="0.05" width="63.9" height="63.9"></rect>
            </g>
        </g>
    </g>
</svg>