<?xml version="1.0" encoding="UTF-8"?>
<svg width="57px" height="60px" viewBox="0 0 57 60" version="1.1" xmlns="http://www.w3.org/2000/svg" xmlns:xlink="http://www.w3.org/1999/xlink">
    <!-- Generator: Sketch 50.2 (55047) - http://www.bohemiancoding.com/sketch -->
    <title>shazam-logo-367d4f909708b29c</title>
    <desc>Created with Sketch.</desc>
    <defs></defs>
    <g id="Ver-1.0" stroke="none" stroke-width="1" fill="none" fill-rule="evenodd">
        <g id="Final-Ver-1.0" transform="translate(-1178.000000, -2203.000000)" fill="#2196F3" fill-rule="nonzero">
            <g id="Group-16" transform="translate(1173.000000, 2203.000000)">
                <g id="shazam-logo-367d4f909708b29c" transform="translate(5.000000, 0.000000)">
                    <path d="M36.4239344,12.9825 C48.4593443,12.87375 57.3326557,23.5275 56.4767213,34.71375 C56.1291148,39.25875 54.4658361,43.34625 51.3037377,46.65375 C47.4426885,50.68875 43.4508197,54.615 39.481377,58.5675 C38.0348852,59.9925 36.2632131,60.37125 34.3868852,59.6175 C32.5105574,58.86375 31.4378361,57.38625 31.198623,55.36875 C31.0053167,54.1227185 31.4244422,52.859809 32.3236721,51.97875 L40.3672131,43.7475 C41.6791475,42.375 43.0209836,41.0325 44.2020984,39.5775 C46.9081967,36.27 47.2857049,32.58375 45.4617049,28.7925 C43.5330492,24.81375 40.2625574,22.875 35.8109508,23.01 C33.3440656,23.0625 31.2808525,24.00375 29.539082,25.69875 C27.8496393,27.34125 26.1601967,29.0325 24.4184262,30.6225 C22.7289836,32.15625 20.5312131,32.3175 18.6810492,31.15875 C16.7735345,29.9961913 15.8730371,27.6999621 16.479541,25.545 C16.6140984,25.06125 16.8533115,24.55125 17.1747541,24.14625 C19.6416393,21.1875 22.243082,18.36375 25.4575082,16.21125 C28.6837464,14.0050534 32.5210343,12.8752739 36.4239344,12.9825 Z" id="Shape"></path>
                    <path d="M20.4153443,46.98 C8.64531148,47.0625 -0.332655738,36.3825 0.523278689,25.2225 C0.870885246,20.83875 2.39960656,16.85625 5.37481967,13.6575 C9.12747541,9.6225 13.096918,5.775 16.9841311,1.875 C17.4139672,1.44375 17.8961311,1.095 18.404459,0.7725 C20.3331148,-0.4125 22.3178361,-0.22125 24.0895082,1.25625 C25.6182295,2.54625 26.2872787,4.9425 25.4836721,6.76875 C25.1883934,7.47 24.624,8.08875 24.0895082,8.65125 C20.7367869,12.09375 17.3616393,15.53625 14.035082,18.97875 C12.6932459,20.35125 11.5158689,21.82875 10.9253115,23.7375 C8.9667541,30.0075 13.7398033,37.35 21.1105574,36.975 C23.5512787,36.84 25.6406557,36.03375 27.4085902,34.33875 C29.0980328,32.69625 30.7613115,31.03125 32.5292459,29.415 C34.2186885,27.88125 36.2819016,27.6675 38.1059016,28.7175 C39.9822295,29.7675 41.002623,31.8375 40.5989508,33.99 C40.4693383,34.6862834 40.1744643,35.3409991 39.7392787,35.89875 C37.2723934,38.83125 34.6447869,41.655 31.4565246,43.83375 C28.1374426,46.09125 24.3810492,46.95375 20.4153443,46.98 Z" id="Shape"></path>
                </g>
            </g>
        </g>
    </g>
</svg>