<?xml version="1.0" encoding="UTF-8"?>
<svg width="164px" height="165px" viewBox="0 0 164 165" version="1.1" xmlns="http://www.w3.org/2000/svg" xmlns:xlink="http://www.w3.org/1999/xlink">
    <!-- Generator: Sketch 50.2 (55047) - http://www.bohemiancoding.com/sketch -->
    <title>Rights Ownership</title>
    <desc>Created with Sketch.</desc>
    <defs>
        <linearGradient x1="50%" y1="157.892863%" x2="50%" y2="0%" id="linearGradient-1">
            <stop stop-color="#3023AE" offset="0%"></stop>
            <stop stop-color="#C86DD7" offset="100%"></stop>
        </linearGradient>
    </defs>
    <g id="Ver-1.0" stroke="none" stroke-width="1" fill="none" fill-rule="evenodd">
        <g id="Final-Ver-1.0" transform="translate(-719.000000, -3101.000000)">
            <g id="Rights-Ownership" transform="translate(719.000000, 3101.000000)">
                <g id="Group" stroke-width="1" fill-rule="evenodd" transform="translate(1.000000, 104.000000)" stroke="#49557D" stroke-linecap="round" stroke-linejoin="round">
                    <polygon id="Path-7" stroke-width="2" points="20.1019182 59.1841437 0 59.1841437 0 3 20.1019182 3 20.1019182 18.3362748"></polygon>
                    <path d="M20.3773585,12.0426265 C36.2722951,5.05085676 50.7346145,4.1265865 63.7643168,9.26981567 C71.4724904,12.3852833 83.0578014,13.0201655 98.5202499,11.1744624 C103.594358,11.0338374 106.303213,13.1573726 106.646816,17.5450679 C106.683631,22.3578934 103.086085,24.7833491 95.854179,24.8214351 L60.2624558,26.1978999" id="Path-8" stroke-width="2"></path>
                    <path d="M106.136885,21.1363823 L147.989074,1.54946823 C153.302642,-0.954763539 157.399175,-0.423513539 160.27867,3.14321823 C162.850715,6.98436406 161.567512,10.8551323 156.429061,14.7555229 C131.366161,31.7609683 115.096778,42.3373029 107.620909,46.4845268 C90.707105,56.5411675 86.0450877,55.3136284 79.5368698,54.3575737 C68.9148732,52.4596245 38.6995688,47.1017143 21.3962264,52.210601" id="Path-9" stroke-width="2"></path>
                </g>
                <circle id="Oval-2" stroke="url(#linearGradient-1)" stroke-width="2" cx="82" cy="52" r="51"></circle>
                <circle id="Oval-2" stroke="url(#linearGradient-1)" stroke-width="2" cx="82" cy="52" r="21"></circle>
                <circle id="Oval-2" stroke="url(#linearGradient-1)" stroke-width="2" cx="82" cy="52" r="11"></circle>
                <path d="M52.5512877,81.946187 C44.8041354,74.3269362 40,63.7245011 40,52 C40,40.2742144 44.8051881,29.6707406 52.5538341,22.0513088 L53.9681005,23.4655752 C46.5813591,30.7230318 42,40.826499 42,52 C42,63.1722164 46.5803058,73.2746451 53.965553,80.5319217 L52.5512877,81.946187 Z M111.946187,81.4487123 L110.531922,80.034447 C117.624826,72.8164705 122,62.9191736 122,52 C122,41.0795419 117.623797,31.1812009 110.529418,23.9630057 L111.943683,22.5487415 C119.399966,30.1289095 124,40.527257 124,52 C124,63.4714584 119.400996,73.868762 111.946187,81.4487123 Z" id="Combined-Shape" fill="url(#linearGradient-1)" fill-rule="evenodd" transform="translate(82.000000, 51.998748) rotate(30.000000) translate(-82.000000, -51.998748) "></path>
                <path d="M59.622679,74.8747957 C53.6850228,69.0654732 50,60.9630782 50,52 C50,43.0356373 53.6860791,34.9322044 59.6252321,29.1227067 L61.039538,30.5370127 C55.4622717,35.9845003 52,43.5879217 52,52 C52,60.4107937 55.4612143,68.0131775 61.0369832,73.4604915 L59.622679,74.8747957 Z M104.874796,74.377321 L103.460492,72.9630168 C108.743919,67.5549991 112,60.1577488 112,52 C112,43.8409666 108.742894,36.4426712 103.457995,31.0344286 L104.872298,29.6201262 C110.519084,35.3903748 114,43.2886816 114,52 C114,60.7100338 110.52011,68.6072958 104.874796,74.377321 Z" id="Combined-Shape" fill="url(#linearGradient-1)" fill-rule="evenodd" transform="translate(82.000000, 51.998751) rotate(30.000000) translate(-82.000000, -51.998751) "></path>
            </g>
        </g>
    </g>
</svg>