<?xml version="1.0" encoding="UTF-8"?>
<svg width="60px" height="60px" viewBox="0 0 60 60" version="1.1" xmlns="http://www.w3.org/2000/svg" xmlns:xlink="http://www.w3.org/1999/xlink">
    <!-- Generator: Sketch 50.2 (55047) - http://www.bohemiancoding.com/sketch -->
    <title>spotify-3aa169caafd7ed5d</title>
    <desc>Created with Sketch.</desc>
    <defs></defs>
    <g id="Ver-1.0" stroke="none" stroke-width="1" fill="none" fill-rule="evenodd">
        <g id="Final-Ver-1.0" transform="translate(-850.000000, -1966.000000)" fill="#00DA5A" fill-rule="nonzero">
            <g id="Group-6" transform="translate(850.000000, 1966.000000)">
                <g id="spotify-3aa169caafd7ed5d">
                    <path d="M47.7,26.7 C38.1,21 22.05,20.4 12.9,23.25 C11.4,23.7 9.9,22.8 9.45,21.45 C9,19.95 9.9,18.45 11.25,18 C21.9,14.85 39.45,15.45 50.55,22.05 C51.9,22.8 52.35,24.6 51.6,25.95 C50.85,27 49.05,27.45 47.7,26.7 M47.4,35.1 C46.65,36.15 45.3,36.6 44.25,35.85 C36.15,30.9 23.85,29.4 14.4,32.4 C13.2,32.7 11.85,32.1 11.55,30.9 C11.25,29.7 11.85,28.35 13.05,28.05 C24,24.75 37.5,26.4 46.8,32.1 C47.7,32.55 48.15,34.05 47.4,35.1 M43.8,43.35 C43.2,44.25 42.15,44.55 41.25,43.95 C34.2,39.6 25.35,38.7 14.85,41.1 C13.8,41.4 12.9,40.65 12.6,39.75 C12.3,38.7 13.05,37.8 13.95,37.5 C25.35,34.95 35.25,36 43.05,40.8 C44.1,41.25 44.25,42.45 43.8,43.35 M30,0 C13.5,0 0,13.5 0,30 C0,46.5 13.5,60 30,60 C46.5,60 60,46.5 60,30 C60,13.5 46.65,0 30,0" id="Spotify"></path>
                </g>
            </g>
        </g>
    </g>
</svg>