<?xml version="1.0" encoding="UTF-8"?>
<svg width="164px" height="164px" viewBox="0 0 164 164" version="1.1" xmlns="http://www.w3.org/2000/svg" xmlns:xlink="http://www.w3.org/1999/xlink">
    <!-- Generator: Sketch 50.2 (55047) - http://www.bohemiancoding.com/sketch -->
    <title>Free Distribution</title>
    <desc>Created with Sketch.</desc>
    <defs>
        <linearGradient x1="50%" y1="157.892863%" x2="50%" y2="0%" id="linearGradient-1">
            <stop stop-color="#3023AE" offset="0%"></stop>
            <stop stop-color="#C86DD7" offset="100%"></stop>
        </linearGradient>
    </defs>
    <g id="Ver-1.0" stroke="none" stroke-width="1" fill="none" fill-rule="evenodd">
        <g id="Final-Ver-1.0" transform="translate(-328.000000, -3101.000000)">
            <g id="Free-Distribution" transform="translate(328.000000, 3101.000000)">
                <path d="M83,34.0102098 C82.6674861,34.0034143 82.3341418,34 82,34 C81.6658582,34 81.3325139,34.0034143 81,34.0102098 L81,1 C81,0.44771525 81.4477153,1.01453063e-16 82,0 C82.5522847,-1.01453063e-16 83,0.44771525 83,1 L83,34.0102098 Z M34.0102098,81 C34.0034143,81.3325139 34,81.6658582 34,82 C34,82.3341418 34.0034143,82.6674861 34.0102098,83 L1,83 C0.44771525,83 0,82.5522847 0,82 C0,81.4477153 0.44771525,81 1,81 L34.0102098,81 Z M81,129.98979 C81.3325139,129.996586 81.6658582,130 82,130 C82.3341418,130 82.6674861,129.996586 83,129.98979 L83,163 C83,163.552285 82.5522847,164 82,164 C81.4477153,164 81,163.552285 81,163 L81,129.98979 Z M129.98979,83 C129.996586,82.6674861 130,82.3341418 130,82 C130,81.6658582 129.996586,81.3325139 129.98979,81 L163,81 C163.552285,81 164,81.4477153 164,82 C164,82.5522847 163.552285,83 163,83 L129.98979,83 Z" id="Combined-Shape" fill="#49557D" fill-rule="evenodd"></path>
                <polyline id="Path-2" stroke="#49557D" stroke-width="2" stroke-linecap="round" stroke-linejoin="round" points="92 11 82 1 72 11"></polyline>
                <polyline id="Path-2" stroke="#49557D" stroke-width="2" stroke-linecap="round" stroke-linejoin="round" transform="translate(82.000000, 158.000000) scale(1, -1) translate(-82.000000, -158.000000) " points="92 163 82 153 72 163"></polyline>
                <path d="M116.640912,48.7733019 C116.179323,48.2921914 115.707809,47.8206772 115.226698,47.3590883 L127.961941,34.6238457 C128.352465,34.2333214 128.98563,34.2333214 129.376154,34.6238457 C129.766679,35.01437 129.766679,35.6475349 129.376154,36.0380592 L116.640912,48.7733019 Z M48.7733019,47.3590883 C48.2921914,47.8206772 47.8206772,48.2921914 47.3590883,48.7733019 L34.6238457,36.0380592 C34.2333214,35.6475349 34.2333214,35.01437 34.6238457,34.6238457 C35.01437,34.2333214 35.6475349,34.2333214 36.0380592,34.6238457 L48.7733019,47.3590883 Z M47.3590883,115.226698 C47.8206772,115.707809 48.2921914,116.179323 48.7733019,116.640912 L36.0380592,129.376154 C35.6475349,129.766679 35.01437,129.766679 34.6238457,129.376154 C34.2333214,128.98563 34.2333214,128.352465 34.6238457,127.961941 L47.3590883,115.226698 Z M115.226698,116.640912 C115.707809,116.179323 116.179323,115.707809 116.640912,115.226698 L129.376154,127.961941 C129.766679,128.352465 129.766679,128.98563 129.376154,129.376154 C128.98563,129.766679 128.352465,129.766679 127.961941,129.376154 L115.226698,116.640912 Z" id="Combined-Shape" fill="#49557D" fill-rule="evenodd"></path>
                <polyline id="Path-2" stroke="#49557D" stroke-width="2" stroke-linecap="round" stroke-linejoin="round" transform="translate(158.000000, 82.000000) rotate(-270.000000) translate(-158.000000, -82.000000) " points="168 87 158 77 148 87"></polyline>
                <polyline id="Path-2" stroke="#49557D" stroke-width="2" stroke-linecap="round" stroke-linejoin="round" transform="translate(6.000000, 82.000000) scale(1, -1) rotate(270.000000) translate(-6.000000, -82.000000) " points="16 87 6 77 -4 87"></polyline>
                <rect id="Rectangle-4" stroke="url(#linearGradient-1)" stroke-width="2" x="40" y="40" width="84" height="84" rx="42"></rect>
                <path d="M99,71.7142857 L99,91.9348693 L98.999579,91.9344402 C98.9998594,91.9562601 99,91.9781136 99,92 C99,94.7614237 96.7614237,97 94,97 C91.2385763,97 89,94.7614237 89,92 C89,89.2385763 91.2385763,87 94,87 C95.1256059,87 96.1643395,87.3719448 97,87.9996338 L97,72.3673469 L70.9255371,80.8814573 L71,80.8814573 L71,101.102041 L70.9990008,101.100971 C70.9452249,103.815787 68.7276877,106 66,106 C63.2385763,106 61,103.761424 61,101 C61,98.2385763 63.2385763,96 66,96 C67.1256059,96 68.1643395,96.3719448 69,96.9996338 L69,81.5102041 L69,67.7959184 L99,58 L99,71.7142857 Z M97,69.676267 L97,61 L71,69.7959184 L71,78.5102041 L97,69.7142857 L97,69.676267 Z M66,104 C67.6568542,104 69,102.656854 69,101 C69,99.3431458 67.6568542,98 66,98 C64.3431458,98 63,99.3431458 63,101 C63,102.656854 64.3431458,104 66,104 Z M94,95 C95.6568542,95 97,93.6568542 97,92 C97,90.3431458 95.6568542,89 94,89 C92.3431458,89 91,90.3431458 91,92 C91,93.6568542 92.3431458,95 94,95 Z" id="Combined-Shape" fill="url(#linearGradient-1)" fill-rule="evenodd"></path>
            </g>
        </g>
    </g>
</svg>